<svg xmlns="http://www.w3.org/2000/svg" viewBox="0 0 48 48"><path fill="#78909c" d="M5,44c-0.4,0-0.7-0.2-0.9-0.6c-0.2-0.5,0-1.1,0.5-1.3c2.8-1.4,3.1-2.3,3.5-3.3 c0.4-1.2,0.9-2.6,4.1-4.3c0.5-0.3,1.1-0.1,1.4,0.4c0.3,0.5,0.1,1.1-0.4,1.4c-2.5,1.3-2.8,2.2-3.1,3.2c-0.6,1.5-1.2,2.8-4.5,4.4 C5.3,44,5.1,44,5,44z"></path><path fill="#ffc107" d="M40,24.8L23.2,8L43,5L40,24.8z"></path><path fill="#ffb300" d="M40,24.8l-8.2-8.2L43,5L40,24.8z"></path><path fill="#ffccbc" d="M16.4,39.2l-7.6-7.6c-0.8-0.8-0.8-2.2,0-3l17.5-17.5l10.6,10.6L19.4,39.2C18.6,40,17.2,40,16.4,39.2 z"></path><path fill="#f44336" d="M8.8 31.6l3 3 9.1 3 3-3L8.3 29.4C8 30.1 8.2 31 8.8 31.6zM26.3 11.1l-3 3 9.1 3L26.3 11.1zM17.2 20.2l16 5.3 3-3-16-5.3L17.2 20.2zM11.1 26.3l16 5.3 3-3-16-5.3L11.1 26.3z"></path></svg>